<?xml version="1.0"?>
<svg xmlns="http://www.w3.org/2000/svg" xmlns:xlink="http://www.w3.org/1999/xlink" xmlns:svgjs="http://svgjs.com/svgjs" version="1.1" width="512" height="512" x="0" y="0" viewBox="0 0 24 24" style="enable-background:new 0 0 512 512" xml:space="preserve"><g><path xmlns="http://www.w3.org/2000/svg" d="m23 2.75c0-1.519-1.231-2.75-2.75-2.75h-11.5c-1.519 0-2.75 1.231-2.75 2.75v13.5c0 1.519 1.231 2.75 2.75 2.75h11.5c1.519 0 2.75-1.231 2.75-2.75zm-4.75 11.75h-7.5c-.414 0-.75-.336-.75-.75s.336-.75.75-.75h7.5c.414 0 .75.336.75.75s-.336.75-.75.75zm0-3h-7.5c-.414 0-.75-.336-.75-.75s.336-.75.75-.75h7.5c.414 0 .75.336.75.75s-.336.75-.75.75zm0-3h-7.5c-.414 0-.75-.336-.75-.75s.336-.75.75-.75h7.5c.414 0 .75.336.75.75s-.336.75-.75.75z" fill="#fff8f8" data-original="#000000" style=""/><path xmlns="http://www.w3.org/2000/svg" d="m8.75 20.5c-2.344 0-4.25-1.907-4.25-4.25v-13.5c0-.086.02-.166.025-.25h-.775c-1.517 0-2.75 1.233-2.75 2.75v16c0 1.517 1.233 2.75 2.75 2.75h12c1.517 0 2.75-1.233 2.75-2.75v-.75z" fill="#fff8f8" data-original="#000000" style=""/></g></svg>
